<?xml version="1.0" encoding="UTF-8"?>
<svg version="1.1" xmlns="http://www.w3.org/2000/svg" width="546" height="794">
<path d="M0 0 C0.77403168 0.00141495 1.54806335 0.0028299 2.34555054 0.00428772 C4.82155192 0.00989222 7.29746338 0.02244542 9.7734375 0.03515625 C11.45051953 0.04017067 13.12760297 0.04473368 14.8046875 0.04882812 C18.91930556 0.0598631 23.03385628 0.07713071 27.1484375 0.09765625 C26.58541882 9.62126033 24.21064986 18.52526729 21.8359375 27.72265625 C21.44008673 29.27587145 21.04490056 30.82925619 20.65039062 32.3828125 C19.8675866 35.46239042 19.08102025 38.54097033 18.29174805 41.61889648 C17.20576078 45.86144707 16.1429761 50.10953427 15.0859375 54.359375 C13.56550538 60.46542102 11.99778615 66.55819706 10.40966797 72.64697266 C6.76886801 86.60868159 3.31470945 100.60767592 -0.05670166 114.63671875 C-2.35922947 124.1987777 -4.78598964 133.68211531 -7.609375 143.10595703 C-10.49405078 152.93736239 -12.69677338 162.94744654 -14.96118164 172.9362793 C-16.4022198 179.24791053 -17.91002805 185.4872806 -19.8828125 191.66015625 C-21.96331829 198.20206751 -23.41102388 204.83776833 -24.80154419 211.55218506 C-27.03390436 222.29578903 -29.4881706 232.90513657 -32.6496582 243.41894531 C-34.70369532 250.33276721 -36.33656502 257.31114081 -37.9140625 264.34765625 C-39.63064886 271.99781601 -41.47816355 279.49668054 -43.81445312 286.98095703 C-46.65650891 296.37453414 -48.71439387 305.99370181 -50.90966797 315.5546875 C-52.75048781 323.55104274 -54.73466567 331.48312975 -56.88061523 339.40478516 C-58.85056656 346.89723769 -60.50608225 354.46625311 -62.20703125 362.0234375 C-63.57602731 368.00118047 -65.04337935 373.87290735 -66.9140625 379.71484375 C-69.27636494 387.1601929 -70.6019233 394.71872936 -71.91796875 402.40625 C-72.20994141 403.98599609 -72.20994141 403.98599609 -72.5078125 405.59765625 C-72.67087891 406.53609375 -72.83394531 407.47453125 -73.00195312 408.44140625 C-74.07053835 411.7822704 -75.35283731 413.63160102 -77.8515625 416.09765625 C-80.80566406 417.3203125 -80.80566406 417.3203125 -84.2421875 418.16015625 C-86.14484375 418.64355469 -86.14484375 418.64355469 -88.0859375 419.13671875 C-89.4242608 419.4579424 -90.76280344 419.77825358 -92.1015625 420.09765625 C-94.69110577 420.73982121 -97.27970198 421.38484665 -99.8671875 422.03515625 C-100.84993652 422.27958969 -100.84993652 422.27958969 -101.85253906 422.52896118 C-106.53853284 423.71212024 -111.14045774 425.08360401 -115.7421875 426.55859375 C-124.93504346 429.50320903 -134.25428619 431.89825869 -143.60058594 434.30078125 C-151.16020692 436.24910324 -158.58933732 438.19764015 -165.8515625 441.09765625 C-168.62932346 442.03891363 -171.42568733 442.91546612 -174.2265625 443.78515625 C-174.93683594 444.01009766 -175.64710938 444.23503906 -176.37890625 444.46679688 C-181.60360467 446.09765625 -181.60360467 446.09765625 -183.8515625 446.09765625 C-180.84600788 451.06335519 -177.16689418 455.14614565 -173.25 459.41796875 C-170.9974543 461.93465662 -168.88766891 464.51478649 -166.7890625 467.16015625 C-162.05371649 473.02296559 -156.9018638 478.4599792 -151.69897461 483.90844727 C-147.82540681 487.96922239 -144.05734242 492.09069481 -140.39892578 496.34692383 C-138.21887134 498.81487982 -138.21887134 498.81487982 -135.8515625 501.09765625 C-135.1915625 501.09765625 -134.5315625 501.09765625 -133.8515625 501.09765625 C-132.2015625 494.49765625 -130.5515625 487.89765625 -128.8515625 481.09765625 C-128.1915625 481.09765625 -127.5315625 481.09765625 -126.8515625 481.09765625 C-126.7484375 480.04578125 -126.6453125 478.99390625 -126.5390625 477.91015625 C-126.43464844 477.18957031 -126.33023438 476.46898437 -126.22265625 475.7265625 C-125.94546227 473.76286197 -125.74105089 471.78863848 -125.57421875 469.8125 C-125.07918682 466.18362959 -124.497836 463.37678254 -122.8515625 460.09765625 C-118.78265876 457.5856044 -114.51110846 456.95447359 -109.8515625 456.09765625 C-107.76798853 455.58269323 -105.69843091 455.0281948 -103.62792969 454.46313477 C-101.68176504 453.93204285 -99.72768626 453.43021448 -97.7734375 452.9296875 C-94.98290737 452.39113935 -94.98290737 452.39113935 -93.8515625 451.09765625 C-88.32215074 450.86236213 -88.32215074 450.86236213 -85.8515625 452.09765625 C-86.40659464 459.06402115 -87.90811765 465.25032288 -89.9765625 471.91015625 C-93.14106707 482.38658425 -95.88764566 492.92952221 -98.45361328 503.56762695 C-99.60761796 508.31114292 -100.75417518 512.99013435 -102.38671875 517.59375 C-103.6310592 521.16175566 -104.44011402 524.711422 -105.17578125 528.41796875 C-105.40072266 529.53042969 -105.62566406 530.64289062 -105.85742188 531.7890625 C-106.31261835 534.08200064 -106.74747796 536.37906803 -107.16210938 538.6796875 C-108.595252 545.55398166 -110.23864687 549.54311913 -115.82739258 553.92138672 C-120.16906057 556.44438231 -124.91561409 556.64169866 -129.8515625 556.09765625 C-132.4765625 554.91015625 -132.4765625 554.91015625 -134.8515625 553.09765625 C-135.8003125 552.37578125 -136.7490625 551.65390625 -137.7265625 550.91015625 C-140.77036097 548.30782474 -143.33491067 545.3823918 -145.9296875 542.33984375 C-148.0500835 539.86604842 -150.22678757 537.44996649 -152.4140625 535.03515625 C-155.01893331 532.15166598 -157.59242902 529.25225496 -160.1015625 526.28515625 C-161.77549982 524.3131205 -163.4542864 522.49493235 -165.2890625 520.66015625 C-167.91169463 518.03752412 -170.31752894 515.29940138 -172.73828125 512.4921875 C-174.38328942 510.62825033 -176.04914863 508.80021086 -177.74609375 506.984375 C-178.24802246 506.44562744 -178.74995117 505.90687988 -179.26708984 505.35180664 C-180.272498 504.27559736 -181.28187798 503.20308337 -182.29541016 502.13452148 C-185.8515625 498.3190275 -185.8515625 498.3190275 -185.8515625 496.09765625 C-186.44437012 495.84201904 -187.03717773 495.58638184 -187.64794922 495.32299805 C-190.07276452 493.9746546 -191.348936 492.62331537 -193.109375 490.4921875 C-195.57550437 487.57868624 -198.0838285 484.74662245 -200.71875 481.984375 C-201.37254639 481.29883545 -202.02634277 480.6132959 -202.69995117 479.90698242 C-203.36873291 479.20677979 -204.03751465 478.50657715 -204.7265625 477.78515625 C-210.08677928 472.14499717 -215.20422597 466.46293806 -219.95703125 460.296875 C-222.0405727 457.87824854 -224.35482277 456.07612711 -226.8515625 454.09765625 C-227.4290625 453.19015625 -228.0065625 452.28265625 -228.6015625 451.34765625 C-230.69048549 448.33032305 -232.59130984 446.46100983 -235.3515625 444.09765625 C-238.91760771 441.04437571 -241.32262513 438.07170069 -243.8515625 434.09765625 C-245.2128125 433.01484375 -245.2128125 433.01484375 -246.6015625 431.91015625 C-247.3440625 431.31203125 -248.0865625 430.71390625 -248.8515625 430.09765625 C-248.8515625 429.10765625 -248.8515625 428.11765625 -248.8515625 427.09765625 C-247.90796875 426.82501953 -247.90796875 426.82501953 -246.9453125 426.546875 C-246.089375 426.29550781 -245.2334375 426.04414063 -244.3515625 425.78515625 C-243.51625 425.54152344 -242.6809375 425.29789062 -241.8203125 425.046875 C-239.66688228 424.35834402 -237.54235171 423.5772712 -235.44140625 422.7421875 C-229.09864219 420.33277548 -222.47425625 418.79564497 -215.9140625 417.09765625 C-213.91996817 416.5801384 -211.92626152 416.06127996 -209.93345642 415.53881836 C-208.12321303 415.06437743 -206.31176567 414.59453711 -204.50024414 414.125 C-201.77363047 413.357279 -199.11989738 412.53326523 -196.44067383 411.625 C-192.08913102 410.15241033 -187.70396423 408.90384054 -183.265625 407.72265625 C-182.48319427 407.51205566 -181.70076355 407.30145508 -180.8946228 407.08447266 C-178.422606 406.41967481 -175.94962283 405.7585603 -173.4765625 405.09765625 C-171.82805724 404.65520029 -170.17961923 404.21249373 -168.53125 403.76953125 C-167.72846619 403.55393555 -166.92568237 403.33833984 -166.09857178 403.11621094 C-164.51243061 402.69008225 -162.92636986 402.26365412 -161.34039307 401.83691406 C-158.05742911 400.95427711 -154.7737588 400.07744398 -151.48339844 399.22265625 C-147.67010923 398.22210753 -144.12543014 397.21763331 -140.5078125 395.6328125 C-134.96042797 393.3036222 -129.17916039 391.99362397 -123.3515625 390.53515625 C-120.96596244 389.93041049 -118.58054029 389.32496238 -116.1953125 388.71875 C-115.09058594 388.4388623 -113.98585938 388.15897461 -112.84765625 387.87060547 C-109.49570536 387.00585021 -106.17103469 386.07885318 -102.8515625 385.09765625 C-102.74706787 384.55125488 -102.64257324 384.00485352 -102.53491211 383.44189453 C-101.13006696 376.24856026 -99.530643 369.10474972 -97.87475586 361.96533203 C-97.56693142 360.63387306 -97.26160304 359.30183462 -96.95874023 357.96923828 C-96.5130508 356.00820476 -96.05932433 354.04900343 -95.60546875 352.08984375 C-95.34064697 350.9385498 -95.0758252 349.78725586 -94.80297852 348.60107422 C-94.10287942 346.02308549 -93.34433199 343.69779047 -92.37670898 341.22729492 C-90.71010643 336.90974023 -89.67843297 332.54657448 -88.6953125 328.03125 C-88.30861737 326.31184365 -87.92189789 324.59244277 -87.53515625 322.87304688 C-86.94097489 320.19873927 -86.34908475 317.52393704 -85.75830078 314.84887695 C-85.18041782 312.24171185 -84.59439709 309.63646884 -84.0078125 307.03125 C-83.83584351 306.23939804 -83.66387451 305.44754608 -83.48669434 304.63169861 C-82.40400884 299.83456557 -80.79789562 295.62921979 -78.8515625 291.09765625 C-78.19287734 288.46359171 -77.60735066 285.88298479 -77.09765625 283.22265625 C-76.95127213 282.49449707 -76.804888 281.76633789 -76.65406799 281.01611328 C-76.19186002 278.71132633 -75.73988265 276.40469512 -75.2890625 274.09765625 C-74.83299867 271.79099321 -74.37469918 269.48481009 -73.91334534 267.17919922 C-73.62827097 265.75182362 -73.34642525 264.32379777 -73.06846619 262.89501953 C-72.20667176 258.5461862 -71.11928948 254.34063272 -69.8515625 250.09765625 C-69.1915625 250.09765625 -68.5315625 250.09765625 -67.8515625 250.09765625 C-67.75746094 248.94265625 -67.66335938 247.78765625 -67.56640625 246.59765625 C-66.75723486 239.32791258 -65.01404881 232.2249418 -63.4140625 225.09765625 C-63.09787535 223.6732729 -62.78211728 222.24879423 -62.46679688 220.82421875 C-61.60019532 216.91420523 -60.72624284 213.00587017 -59.8515625 209.09765625 C-59.44361192 207.26441155 -59.03597868 205.43109614 -58.62890625 203.59765625 C-58.37238281 202.44265625 -58.11585938 201.28765625 -57.8515625 200.09765625 C-57.1915625 200.09765625 -56.5315625 200.09765625 -55.8515625 200.09765625 C-55.72394531 198.95852783 -55.59632813 197.81939941 -55.46484375 196.64575195 C-54.90062312 192.14563544 -54.01185495 187.75538268 -53.0390625 183.328125 C-52.86528076 182.52530594 -52.69149902 181.72248688 -52.51245117 180.89533997 C-52.14765177 179.2134767 -51.7811753 177.53197638 -51.41308594 175.85083008 C-50.84950544 173.27575726 -50.29152901 170.69951699 -49.734375 168.12304688 C-49.37793007 166.48300205 -49.02117042 164.84302559 -48.6640625 163.203125 C-48.41402466 162.05000069 -48.41402466 162.05000069 -48.15893555 160.87358093 C-47.50428321 157.89076447 -46.81809289 154.99724743 -45.8515625 152.09765625 C-45.1915625 152.09765625 -44.5315625 152.09765625 -43.8515625 152.09765625 C-43.80334854 151.48862457 -43.75513458 150.8795929 -43.70545959 150.25210571 C-43.16739052 144.15540207 -42.17198383 138.32733808 -40.78515625 132.37109375 C-40.58680679 131.49740143 -40.38845734 130.62370911 -40.18409729 129.72354126 C-39.55806476 126.97192104 -38.92372504 124.22229728 -38.2890625 121.47265625 C-37.85947173 119.59127232 -37.43043035 117.70976285 -37.00195312 115.828125 C-35.95815917 111.24982842 -34.90691794 106.67330097 -33.8515625 102.09765625 C-33.1915625 102.09765625 -32.5315625 102.09765625 -31.8515625 102.09765625 C-31.79005005 101.23672363 -31.79005005 101.23672363 -31.72729492 100.35839844 C-31.12397819 93.20367173 -29.75534704 86.34216429 -28.1640625 79.34765625 C-27.8956958 78.15084229 -27.6273291 76.95402832 -27.35083008 75.72094727 C-25.5736972 67.91995209 -23.53765939 60.23454711 -21.32250977 52.54907227 C-17.8843842 40.19424518 -15.48074529 27.56211638 -12.92260742 15.00170898 C-12.55000682 13.20425616 -12.1773685 11.40681115 -11.8046875 9.609375 C-11.63719498 8.76566345 -11.46970245 7.9219519 -11.2971344 7.05267334 C-10.87964371 5.05313949 -10.37416354 3.07232641 -9.8515625 1.09765625 C-6.73202122 -0.46211439 -3.42196866 -0.02338501 0 0 Z " fill="#FEFEFE" transform="translate(466.8515625,-0.09765625)"/>
<path d="M0 0 C1.91916999 1.7585586 3.75017151 3.51491251 5.5625 5.375 C6.49191406 6.31085938 7.42132813 7.24671875 8.37890625 8.2109375 C10.73570775 10.71877098 12.87274738 13.29843512 15 16 C15.78375 16.78375 16.5675 17.5675 17.375 18.375 C19.43390751 20.43390751 21.39111252 22.50389964 23.3125 24.6875 C23.82425781 25.26886719 24.33601562 25.85023438 24.86328125 26.44921875 C26 28 26 28 26 30 C26.85271484 30.33064453 26.85271484 30.33064453 27.72265625 30.66796875 C30.70717397 32.41363006 32.31369201 34.59240623 34.4375 37.3125 C37.43648403 41.13555269 40.53370612 44.59653924 44 48 C46.00237431 50.08275784 47.97313595 52.19390902 49.9375 54.3125 C50.46891602 54.88500488 51.00033203 55.45750977 51.54785156 56.04736328 C54.30208506 59.04621064 56.88829911 62.05040178 59.25 65.375 C61.7865258 68.94269504 64.77934982 71.60570439 68.16796875 74.359375 C70.10774788 76.09649064 71.57187938 77.82465838 73 80 C73 80.66 73 81.32 73 82 C73.57234375 82.226875 74.1446875 82.45375 74.734375 82.6875 C77.62129471 84.35992245 79.19470494 86.38140185 81.25 89 C81.95640625 89.886875 82.6628125 90.77375 83.390625 91.6875 C85 94 85 94 85 96 C85.57234375 96.2371875 86.1446875 96.474375 86.734375 96.71875 C89.4879292 98.27593238 91.16795634 100.12492797 93.25 102.5 C94.30960937 103.69109375 94.30960937 103.69109375 95.390625 104.90625 C97 107 97 107 97 109 C97.56589844 109.22945313 98.13179688 109.45890625 98.71484375 109.6953125 C101.60322427 111.34440497 103.37241037 113.37733433 105.5625 115.875 C106.32691406 116.73867188 107.09132813 117.60234375 107.87890625 118.4921875 C108.57886719 119.31976563 109.27882813 120.14734375 110 121 C110.60714844 121.68320312 111.21429688 122.36640625 111.83984375 123.0703125 C113 125 113 125 112.57250977 127.12060547 C112.38358154 127.74080566 112.19465332 128.36100586 112 129 C102.70836033 131.63836682 93.45311157 134.25233173 83.9921875 136.2265625 C80.85225479 136.97727407 80.85225479 136.97727407 77.3659668 138.39990234 C73.02963733 140.04324507 68.64474279 141.24105298 64.15234375 142.375 C62.47850465 142.80724919 60.80467687 143.23954217 59.13085938 143.671875 C56.52898601 144.33825337 53.92664717 145.00276567 51.32397461 145.66601562 C48.78637203 146.31434141 46.2505771 146.9694077 43.71484375 147.625 C42.55987648 147.91576416 42.55987648 147.91576416 41.38157654 148.21240234 C37.93679882 149.10496715 34.80171301 150.08504172 31.51904297 151.49291992 C27.40671046 153.25408466 23.30480702 154.37897741 18.98046875 155.48828125 C18.12302567 155.71396286 17.26558258 155.93964447 16.38215637 156.17216492 C12.75372196 157.12713512 9.12216332 158.06992919 5.49047852 159.01245117 C0.18153262 160.39429796 -5.11576564 161.8107009 -10.40045166 163.28277588 C-12.14207462 163.7632955 -13.88693105 164.23223716 -15.63470459 164.68988037 C-18.14739482 165.35411679 -20.64134752 166.06672543 -23.13671875 166.79296875 C-23.88830765 166.98168045 -24.63989655 167.17039215 -25.41426086 167.36482239 C-28.62104735 168.34774607 -30.46086194 169.00947291 -32.10673523 172.03334045 C-32.89631068 174.34305435 -33.490044 176.61419065 -34 179 C-34.24290771 179.88953369 -34.48581543 180.77906738 -34.73608398 181.69555664 C-34.90438721 182.42637451 -35.07269043 183.15719238 -35.24609375 183.91015625 C-35.44130615 184.74611328 -35.63651855 185.58207031 -35.83764648 186.44335938 C-36.03559814 187.30767578 -36.2335498 188.17199219 -36.4375 189.0625 C-36.87441969 190.92852139 -37.31192465 192.79440583 -37.75 194.66015625 C-37.96269531 195.57039551 -38.17539063 196.48063477 -38.39453125 197.41845703 C-40.8577306 207.92082396 -43.63449172 218.29514887 -46.64599609 228.65136719 C-48.90604444 236.49997593 -50.87587823 244.40826187 -52.81982422 252.34008789 C-54.23950182 258.08890009 -55.76720973 263.77566 -57.5 269.4375 C-59.9249341 277.37648103 -61.80661475 285.42198989 -63.69921875 293.50195312 C-65.28577067 300.20837286 -67.04390351 306.83008458 -69 313.4375 C-71.33591528 321.33399217 -73.2640699 329.27716962 -75.0625 337.3125 C-76.89275878 345.47597005 -78.96621528 353.35320118 -81.5859375 361.296875 C-83.7077252 368.06534651 -85.30467716 374.99007726 -87 381.875 C-89.27933131 391.12954867 -91.5838712 400.36249485 -94.20483398 409.52758789 C-96.24399994 416.71914372 -98.0153766 423.97658528 -99.77001953 431.2421875 C-101.00694148 436.29646204 -102.3682343 441.27129172 -103.93359375 446.234375 C-106.27901982 453.72471434 -108.1445785 461.31559518 -110 468.9375 C-112.20408038 477.96798753 -114.5191257 486.9322434 -117.11132812 495.86157227 C-118.29622029 500.04612962 -119.28969298 504.25942312 -120.25 508.5 C-122.66096268 518.90753518 -125.42090494 529.21493324 -128.23339844 539.51953125 C-129.91484766 545.72491878 -131.47594329 551.88539744 -132.59887695 558.21801758 C-133 560 -133 560 -134 561 C-136.21855264 561.08783542 -138.43988496 561.10694609 -140.66015625 561.09765625 C-141.32462265 561.0962413 -141.98908905 561.09482635 -142.6736908 561.09336853 C-144.80333899 561.08775518 -146.93288339 561.07520054 -149.0625 561.0625 C-150.50325369 561.05748671 -151.94400903 561.05292351 -153.38476562 561.04882812 C-156.92321102 561.03778145 -160.46159539 561.02050792 -164 561 C-163.42362756 552.12926786 -161.52902168 543.67322068 -159.56152344 535.02954102 C-158.99603457 532.54507797 -158.43870682 530.05889133 -157.8828125 527.57226562 C-157.5265058 525.98687479 -157.16975126 524.40158451 -156.8125 522.81640625 C-156.64580811 522.0758046 -156.47911621 521.33520294 -156.30737305 520.57215881 C-155.64413841 517.66218278 -154.94454046 514.83362139 -154 512 C-153.34 512 -152.68 512 -152 512 C-151.90589844 510.82695313 -151.81179687 509.65390625 -151.71484375 508.4453125 C-151.01398916 502.15117022 -149.51380435 496.03752677 -148.04370117 489.88818359 C-147.56209781 487.87331736 -147.08801145 485.8567974 -146.61523438 483.83984375 C-145.2025168 477.85153256 -143.72240937 471.90688138 -142 466 C-141.34 466 -140.68 466 -140 466 C-139.92652344 464.73800781 -139.85304688 463.47601562 -139.77734375 462.17578125 C-139.01117568 454.5342983 -137.03705203 447.14927268 -135.18920898 439.7121582 C-134.5601064 437.17785754 -133.94237484 434.64098024 -133.32617188 432.10351562 C-132.92774495 430.47900426 -132.52867895 428.85464946 -132.12890625 427.23046875 C-131.94550186 426.47831589 -131.76209747 425.72616302 -131.57313538 424.95121765 C-130.62632476 421.15925636 -129.45668738 417.61875349 -128 414 C-127.50268034 411.98114732 -127.05017872 409.95094699 -126.6328125 407.9140625 C-126.38885742 406.74246582 -126.14490234 405.57086914 -125.89355469 404.36376953 C-125.63993164 403.12997559 -125.38630859 401.89618164 -125.125 400.625 C-120.27440256 377.50026534 -120.27440256 377.50026534 -117.07495117 368.35620117 C-115.8124926 364.41456637 -114.86644074 360.44962761 -113.94140625 356.41796875 C-113.55149963 354.74672908 -113.16152348 353.07550563 -112.77148438 351.40429688 C-112.16677605 348.79809951 -111.56344485 346.19159307 -110.96166992 343.5847168 C-110.37523566 341.04910274 -109.78355568 338.51475328 -109.19140625 335.98046875 C-109.0163002 335.21453903 -108.84119415 334.44860931 -108.66078186 333.6594696 C-107.58876485 329.0827158 -106.24819575 324.68331013 -104.72496033 320.23799133 C-103.54165316 316.58505878 -102.6943495 312.86692051 -101.84375 309.125 C-101.65534546 308.31562988 -101.46694092 307.50625977 -101.27282715 306.67236328 C-100.67782288 304.11582951 -100.08820925 301.5581051 -99.5 299 C-98.72368598 295.6238327 -97.94166132 292.2490612 -97.15625 288.875 C-96.89829651 287.74022217 -96.89829651 287.74022217 -96.63513184 286.58251953 C-95.75939439 282.82267019 -94.75845475 279.17288211 -93.5065918 275.51977539 C-91.95997518 271.00608036 -90.81210961 266.45457605 -89.73828125 261.80859375 C-89.54276169 260.97787857 -89.34724213 260.14716339 -89.14579773 259.29127502 C-88.53078253 256.67424973 -87.92154181 254.05592113 -87.3125 251.4375 C-86.89296164 249.64769652 -86.47304314 247.8579821 -86.05273438 246.06835938 C-85.03076499 241.71325536 -84.01396697 237.35697379 -83 233 C-82.34 233 -81.68 233 -81 233 C-80.87761963 231.71810791 -80.75523926 230.43621582 -80.62915039 229.11547852 C-80.06313832 224.04117998 -79.05552247 219.12910296 -77.93359375 214.15234375 C-77.73524429 213.25504044 -77.53689484 212.35773712 -77.33253479 211.4332428 C-76.70526547 208.60032839 -76.07149964 205.76891491 -75.4375 202.9375 C-75.00803115 201.00335117 -74.57899061 199.06910718 -74.15039062 197.13476562 C-73.10520584 192.42206317 -72.05419692 187.71069433 -71 183 C-70.34 183 -69.68 183 -69 183 C-68.867146 181.83831299 -68.73429199 180.67662598 -68.59741211 179.47973633 C-67.81090705 173.20535752 -66.39688251 167.06065796 -65.04370117 160.8894043 C-64.5602342 158.67713202 -64.08752065 156.46272954 -63.61523438 154.24804688 C-63.30794149 152.83579595 -63.00002116 151.42368137 -62.69140625 150.01171875 C-62.41498291 148.73772217 -62.13855957 147.46372559 -61.85375977 146.15112305 C-61 143 -61 143 -59 140 C-56.55422832 138.91136423 -54.20389505 137.99900751 -51.67578125 137.1484375 C-50.92605545 136.89065521 -50.17632965 136.63287292 -49.40388489 136.36727905 C-41.00422582 133.55338439 -32.44875603 131.3740351 -23.84741211 129.27490234 C-21.14240617 128.61398212 -18.44125279 127.93873262 -15.74023438 127.26171875 C-14.00801692 126.83250751 -12.27560229 126.40409101 -10.54296875 125.9765625 C-9.74199265 125.77664703 -8.94101654 125.57673157 -8.11576843 125.37075806 C-4.6156009 124.5218759 -1.62339012 124 2 124 C2 123.34 2 122.68 2 122 C3.45853394 121.6146106 3.45853394 121.6146106 4.9465332 121.22143555 C8.60517707 120.25458594 12.26366918 119.28716313 15.92211914 118.31958008 C17.49597198 117.90341166 19.06986419 117.48739215 20.64379883 117.0715332 C22.17265964 116.66756394 23.70145866 116.26336071 25.23019409 115.85891724 C26.73174055 115.4618018 28.23346926 115.06537482 29.73538208 114.66964722 C34.75257637 113.34405366 39.74831731 111.9550378 44.72729492 110.49145508 C47.20976352 109.95464024 49.46765046 109.9133928 52 110 C50.81353693 105.84737924 49.02348209 104.05105314 45.64453125 101.453125 C43.13443584 99.23517846 41.37188397 96.54406207 39.4296875 93.83203125 C37.99166811 91.83208524 37.99166811 91.83208524 35.5625 90.125 C32.95208307 87.96026401 31.55443719 85.99635347 29.6875 83.1875 C26.81065398 78.90991891 23.75329102 75.83622343 19.78125 72.58984375 C17.32477694 70.3973338 15.77528094 67.75474628 14 65 C13.236875 64.401875 12.47375 63.80375 11.6875 63.1875 C8.35378558 60.47401152 6.13384876 57.31444848 3.6484375 53.828125 C3.10445312 53.22484375 2.56046875 52.6215625 2 52 C1.01 52 0.02 52 -1 52 C-1.13051758 52.54825439 -1.26103516 53.09650879 -1.39550781 53.66137695 C-5.87882802 72.37001306 -5.87882802 72.37001306 -9.171875 80.66796875 C-10.27083396 83.76267864 -10.79059199 86.87439497 -11.21484375 90.125 C-12.42119478 93.00583828 -14.23555022 93.64413907 -17 95 C-26.2875286 98.63088126 -36.10904404 101.61328514 -46 103 C-46.66 102.67 -47.32 102.34 -48 102 C-48.37555106 97.11783621 -47.98852873 93.56318921 -46.28125 88.96875 C-43.21606478 80.07780901 -41.31017989 70.91321304 -39.25 61.75 C-38.83518477 59.92565625 -38.41982421 58.10143641 -38.00390625 56.27734375 C-36.99631744 51.85296452 -35.99610212 47.42697883 -35 43 C-34.34 43 -33.68 43 -33 43 C-32.89429688 41.77796875 -32.78859375 40.5559375 -32.6796875 39.296875 C-31.9954035 33.16472998 -30.57143127 27.2403422 -29.125 21.25 C-28.86847656 20.14011719 -28.61195313 19.03023437 -28.34765625 17.88671875 C-28.09113281 16.81550781 -27.83460938 15.74429688 -27.5703125 14.640625 C-27.34102051 13.67672852 -27.11172852 12.71283203 -26.87548828 11.71972656 C-25.93454456 8.79666102 -24.77842976 6.50129008 -23 4 C-22.34 4 -21.68 4 -21 4 C-20.67 3.01 -20.34 2.02 -20 1 C-19.34 1 -18.68 1 -18 1 C-17.67 0.01 -17.34 -0.98 -17 -2 C-10.48852246 -3.57854001 -5.60977495 -3.88433154 0 0 Z " fill="#FEFEFE" transform="translate(219,233)"/>
</svg>
